# Blender v2.83.5 OBJ File: ''
# www.blender.org
mtllib item/scanner.mtl
o Cylinder
v -1.299038 0.160285 -0.750000
v 0.000000 0.039715 -1.500000
v -1.299038 0.039715 -0.750000
v 0.000000 -0.000000 1.118788
v 1.239466 -0.000000 0.715606
v 0.000000 -0.000000 1.431212
v 0.000000 0.160285 1.500000
v -1.299038 0.039715 0.750000
v 0.000000 0.039715 1.500000
v -1.299038 0.160285 0.750000
v 1.299038 0.160285 0.750000
v 1.299038 0.039715 0.750000
v 0.000000 0.039715 -1.050000
v -0.909327 0.160285 -0.525000
v -0.909327 0.039715 -0.525000
v 0.000000 0.200000 -1.118788
v 0.968899 0.200000 -0.559394
v 0.000000 0.200000 -1.431212
v 0.000000 0.160285 -1.500000
v 1.299038 0.039715 -0.750000
v 0.909327 0.160285 0.525000
v 0.909327 0.039715 -0.525000
v 0.909327 0.039715 0.525000
v -0.909327 0.160285 0.525000
v 0.000000 0.039715 1.050000
v -0.909327 0.039715 0.525000
v 1.299038 0.160285 -0.750000
v -0.968899 0.200000 0.559394
v -1.263295 0.200000 0.688091
v 0.011456 0.200000 1.424598
v 0.909327 0.160285 -0.525000
v 0.000000 0.160285 1.050000
v -0.909327 0.160285 0.075000
v 0.000000 0.000000 -1.431212
v 1.239466 0.200000 -0.715606
v 1.239466 0.000000 -0.715606
v 1.239466 0.200000 0.715606
v -1.239466 -0.000000 0.715606
v -1.262378 0.200000 -0.702377
v -1.239466 0.000000 -0.715606
v -0.968899 0.200000 -0.559394
v 0.000000 0.160285 -1.050000
v 0.000000 0.000000 -1.118788
v 0.000000 0.200000 1.118788
v -0.968899 -0.000000 0.559394
v 0.968899 -0.000000 0.559394
v 0.968899 0.200000 0.559394
v 0.968899 0.000000 -0.559394
v -0.968899 0.000000 -0.559394
v -0.968899 0.200000 0.178182
vt 0.694856 0.417194
vt 0.719744 0.140985
vt 0.719744 0.417194
vt 0.206025 0.576182
vt 0.043132 0.754129
vt 0.174544 0.524736
vt 0.967563 0.419354
vt 0.990255 0.152074
vt 0.990255 0.419354
vt 0.967563 0.152074
vt 0.990255 0.018435
vt 0.967563 0.552994
vt 0.990255 0.552994
vt 0.761027 0.389573
vt 0.736140 0.292900
vt 0.761027 0.292900
vt 0.508584 0.251529
vt 0.406764 0.079871
vt 0.568389 0.253021
vt 0.694856 0.140985
vt 0.719744 0.002881
vt 0.777423 0.099554
vt 0.802311 0.002881
vt 0.802311 0.099554
vt 0.736139 0.099554
vt 0.761027 0.002881
vt 0.761027 0.099554
vt 0.818706 0.279090
vt 0.843594 0.002881
vt 0.843594 0.279090
vt 0.190825 0.427978
vt 0.164239 0.480713
vt 0.036838 0.253004
vt 0.884878 0.002881
vt 0.859990 0.196227
vt 0.859990 0.002881
vt 0.777423 0.292900
vt 0.802311 0.292900
vt 0.736139 0.182417
vt 0.727942 0.137819
vt 0.686658 0.006048
vt 0.694856 0.002881
vt 0.851792 0.272757
vt 0.810509 0.009214
vt 0.818706 0.002881
vt 0.997729 0.422418
vt 0.997729 0.549930
vt 0.960089 0.423597
vt 0.997729 0.413226
vt 0.960089 0.414404
vt 0.960089 0.152074
vt 0.997729 0.149010
vt 0.967563 0.018435
vt 0.960089 0.146559
vt 0.960089 0.022677
vt 0.727942 0.147319
vt 0.727942 0.410861
vt 0.686658 0.147319
vt 0.408019 0.431377
vt 0.491553 0.251531
vt 0.769225 0.389573
vt 0.096063 0.253890
vt 0.202651 0.415255
vt 0.769225 0.099554
vt 0.810509 0.099554
vt 0.203644 0.092790
vt 0.193710 0.077660
vt 0.102179 0.754159
vt 0.213710 0.588066
vt 0.115671 0.754686
vt 0.398743 0.092428
vt 0.205216 0.925445
vt 0.408128 0.913453
vt 0.414241 0.926945
vt 0.109987 0.251718
vt 0.277409 0.416624
vt 0.395490 0.416625
vt 0.769225 0.292900
vt 0.727942 0.163417
vt 0.727942 0.099554
vt 0.443263 0.980512
vt 0.575196 0.753662
vt 0.441858 0.524697
vt 0.513420 0.753668
vt 0.414220 0.576124
vt 0.177062 0.979823
vt 0.736139 0.389573
vt 0.437717 0.487927
vt 0.261826 0.427187
vt 0.433722 0.028864
vt 0.777423 0.002881
vt 0.736139 0.002881
vt 0.163383 0.024130
vt 0.884878 0.196227
vt 0.727942 0.006048
vt 0.686658 0.137819
vt 0.851792 0.009214
vt 0.810509 0.272757
vt 0.960089 0.549930
vt 0.997729 0.158203
vt 0.997729 0.021499
vt 0.686658 0.415733
vt 0.769225 0.002881
vt 0.810509 0.002881
vt 0.211415 0.913473
vn -0.5000 0.0000 -0.8660
vn 0.0000 -1.0000 -0.0000
vn -0.5000 0.0000 0.8660
vn -1.0000 0.0000 0.0000
vn 0.5000 0.0000 0.8660
vn -0.0000 1.0000 0.0000
vn 0.5000 0.0000 -0.8660
vn 1.0000 0.0000 0.0000
vn 0.2774 -0.8320 -0.4804
vn 0.2774 0.8320 -0.4804
vn 0.5547 -0.8320 -0.0000
vn 0.5547 0.8320 0.0000
vn 0.2774 -0.8320 0.4804
vn 0.2774 0.8320 0.4804
vn -0.2774 -0.8320 0.4804
vn -0.2437 0.8732 0.4220
vn -0.2433 0.8738 0.4210
vn -0.2430 0.8742 0.4205
vn -0.5547 -0.8320 -0.0000
vn -0.7408 0.6717 -0.0001
vn -0.7370 0.6758 -0.0004
vn -0.7345 0.6786 -0.0005
vn -0.2774 -0.8320 -0.4804
vn -0.2773 0.8321 -0.4804
vn -0.2774 0.8320 -0.4804
vn -0.5547 0.8320 0.0000
vn -0.2774 0.8320 0.4804
vn -0.2440 0.8728 0.4227
vn -0.7433 0.6690 0.0000
g Cylinder_Cylinder_ScannerMat
usemtl ScannerMat
s 1
f 1/1/1 2/2/1 3/3/1
f 4/4/2 5/5/2 6/6/2
f 7/7/3 8/8/3 9/9/3
f 10/10/4 3/11/4 8/8/4
f 11/12/5 9/9/5 12/13/5
f 13/14/5 14/15/5 15/16/5
f 16/17/6 17/18/6 18/19/6
f 19/20/7 20/21/7 2/2/7
f 21/22/4 22/23/4 23/24/4
f 24/25/7 25/26/7 26/27/7
f 27/28/8 12/29/8 20/30/8
f 28/31/6 29/32/6 30/33/6
f 31/34/3 13/35/3 22/36/3
f 32/37/1 23/24/1 25/38/1
f 33/39/8 24/25/8 26/27/8
f 20/21/9 34/40/9 2/2/9
f 19/20/10 35/41/10 27/42/10
f 12/29/11 36/43/11 20/30/11
f 27/28/12 37/44/12 11/45/12
f 12/13/13 6/46/13 5/47/13
f 11/12/14 30/48/14 7/7/14
f 8/8/15 6/49/15 9/9/15
f 10/10/16 30/50/17 29/51/18
f 3/11/19 38/52/19 8/8/19
f 1/53/20 29/54/21 39/55/22
f 3/3/23 34/56/23 40/57/23
f 1/1/24 18/58/25 19/20/25
f 41/59/14 42/60/14 16/17/14
f 15/16/13 43/61/13 13/14/13
f 44/62/10 24/63/10 28/31/10
f 25/26/9 45/64/9 26/27/9
f 22/23/19 46/65/19 23/24/19
f 17/18/26 21/66/26 47/67/26
f 46/68/23 25/69/23 23/70/23
f 16/17/27 31/71/27 17/18/27
f 48/72/15 13/73/15 43/74/15
f 47/67/25 32/75/25 44/62/25
f 41/59/12 33/76/12 14/77/12
f 26/27/11 49/78/11 15/16/11
f 24/25/12 50/79/12 28/80/12
f 34/81/2 43/74/2 40/82/2
f 1/1/1 19/20/1 2/2/1
f 38/83/2 40/82/2 49/84/2
f 38/83/2 49/84/2 45/85/2
f 48/72/2 36/86/2 46/68/2
f 36/86/2 5/5/2 46/68/2
f 6/6/2 38/83/2 45/85/2
f 4/4/2 46/68/2 5/5/2
f 6/6/2 45/85/2 4/4/2
f 7/7/3 10/10/3 8/8/3
f 10/10/4 1/53/4 3/11/4
f 11/12/5 7/7/5 9/9/5
f 13/14/5 42/87/5 14/15/5
f 39/88/6 29/32/6 50/89/6
f 39/88/6 50/89/6 41/59/6
f 17/18/6 35/90/6 18/19/6
f 39/88/6 41/59/6 18/19/6
f 41/59/6 16/17/6 18/19/6
f 19/20/7 27/42/7 20/21/7
f 21/22/4 31/91/4 22/23/4
f 24/25/7 32/92/7 25/26/7
f 27/28/8 11/45/8 12/29/8
f 37/93/6 35/90/6 17/18/6
f 37/93/6 17/18/6 47/67/6
f 28/31/6 50/89/6 29/32/6
f 37/93/6 47/67/6 30/33/6
f 47/67/6 44/62/6 30/33/6
f 44/62/6 28/31/6 30/33/6
f 31/34/3 42/94/3 13/35/3
f 32/37/1 21/22/1 23/24/1
f 26/27/8 15/16/8 33/39/8
f 15/16/8 14/15/8 33/39/8
f 20/21/9 36/95/9 34/40/9
f 19/20/10 18/96/10 35/41/10
f 12/29/11 5/97/11 36/43/11
f 27/28/12 35/98/12 37/44/12
f 12/13/13 9/9/13 6/46/13
f 11/12/14 37/99/14 30/48/14
f 8/8/15 38/100/15 6/49/15
f 10/10/16 7/7/28 30/50/17
f 3/11/19 40/101/19 38/52/19
f 1/53/20 10/10/29 29/54/21
f 3/3/23 2/2/23 34/56/23
f 1/1/24 39/102/24 18/58/25
f 41/59/14 14/77/14 42/60/14
f 15/16/13 49/78/13 43/61/13
f 44/62/10 32/75/10 24/63/10
f 25/26/9 4/103/9 45/64/9
f 22/23/19 48/104/19 46/65/19
f 17/18/26 31/71/26 21/66/26
f 46/68/23 4/4/23 25/69/23
f 16/17/27 42/60/27 31/71/27
f 48/72/15 22/105/15 13/73/15
f 47/67/25 21/66/25 32/75/25
f 41/59/12 50/89/12 33/76/12
f 26/27/11 45/64/11 49/78/11
f 24/25/12 33/39/12 50/79/12
f 34/81/2 36/86/2 48/72/2
f 43/74/2 49/84/2 40/82/2
f 34/81/2 48/72/2 43/74/2
o Cylinder.001_Cylinder.002
v 0.000000 0.100000 -1.100000
v 0.000000 0.100220 -1.100000
v 0.952628 0.100220 -0.550000
v 0.952628 0.100000 -0.550000
v 0.952628 0.100220 0.550000
v 0.952628 0.100000 0.550000
v 0.000000 0.100220 1.100000
v 0.000000 0.100000 1.100000
v -0.952628 0.100220 0.550000
v -0.952628 0.100000 0.550000
v -0.952628 0.100220 -0.550000
v -0.952628 0.100000 -0.550000
vt 0.493874 1.001817
vt 0.493874 1.001817
vt 0.999695 0.750697
vt 0.999695 0.750697
vt 0.999752 0.248830
vt 0.999752 0.248830
vt 0.495197 0.001130
vt 0.495197 0.001130
vt 0.000305 0.267470
vt 0.000305 0.267470
vt 0.000816 0.747922
vt 0.000816 0.747922
vn 0.5000 0.0000 -0.8660
vn 1.0000 0.0000 0.0000
vn 0.5000 0.0000 0.8660
vn -0.5000 0.0000 0.8660
vn 0.0000 1.0000 0.0000
vn -1.0000 0.0000 0.0000
vn -0.5000 0.0000 -0.8660
vn 0.0000 -1.0000 -0.0000
g Cylinder.001_Cylinder.002_Cylinder.001_Cylinder.002_ScreenMat
usemtl ScreenMat
s 1
f 51/106/30 52/107/30 53/108/30 54/109/30
f 54/109/31 53/108/31 55/110/31 56/111/31
f 56/111/32 55/110/32 57/112/32 58/113/32
f 58/113/33 57/112/33 59/114/33 60/115/33
f 53/108/34 52/107/34 61/116/34 59/114/34 57/112/34 55/110/34
f 60/115/35 59/114/35 61/116/35 62/117/35
f 62/117/36 61/116/36 52/107/36 51/106/36
f 51/106/37 54/109/37 56/111/37 58/113/37 60/115/37 62/117/37
