# Blender v2.83.5 OBJ File: 'Scanner.blend'
# www.blender.org
mtllib scanner.mtl
o Cylinder
v 0.698832 0.035801 -0.000000
v 0.731739 0.006495 -0.000000
v 0.731739 0.143505 -0.000000
v 0.698832 0.114199 -0.000000
v 0.365869 0.006495 0.633704
v 0.349416 0.035801 0.605206
v 0.349416 0.114199 0.605206
v 0.365869 0.143505 0.633704
v -0.365869 0.006495 0.633704
v -0.349416 0.035801 0.605206
v -0.349416 0.114199 0.605206
v -0.365869 0.143505 0.633704
v -0.731739 0.006495 -0.000000
v -0.698832 0.035801 -0.000000
v -0.698832 0.114199 -0.000000
v -0.731739 0.143505 -0.000000
v -0.365869 0.006495 -0.633704
v -0.349416 0.035801 -0.605206
v -0.349416 0.114199 -0.605206
v -0.365869 0.143505 -0.633704
v 0.365869 0.006495 -0.633704
v 0.349416 0.035801 -0.605206
v 0.349416 0.114199 -0.605206
v 0.365869 0.143505 -0.633704
v 0.967093 0.000797 -0.000000
v 1.000000 0.028509 -0.000000
v 0.500000 0.028509 0.866025
v 0.483546 0.000797 0.837527
v 0.483546 0.149203 0.837527
v 0.500000 0.121490 0.866025
v 1.000000 0.121490 -0.000000
v 0.967093 0.149203 -0.000000
v -0.500000 0.028509 0.866025
v -0.483546 0.000797 0.837527
v -0.483546 0.149203 0.837527
v -0.500000 0.121490 0.866025
v -1.000000 0.028509 -0.000000
v -0.967093 0.000797 -0.000000
v -0.967093 0.149203 -0.000000
v -1.000000 0.121490 -0.000000
v -0.500000 0.028509 -0.866025
v -0.483546 0.000797 -0.837527
v -0.483546 0.149203 -0.837527
v -0.500000 0.121490 -0.866025
v 0.500000 0.028509 -0.866026
v 0.483546 0.000797 -0.837527
v 0.483546 0.149203 -0.837527
v 0.500000 0.121490 -0.866026
vt 0.762620 0.423921
vt 0.736893 0.423921
vt 0.736892 0.142087
vt 0.762620 0.142087
vt 0.992112 0.563669
vt 0.966384 0.563669
vt 0.966384 0.422752
vt 0.992112 0.422752
vt 0.966384 0.140917
vt 0.992112 0.140917
vt 0.966384 0.000000
vt 0.992112 0.000000
vt 0.845628 0.283004
vt 0.819901 0.283004
vt 0.819901 0.001169
vt 0.845628 0.001169
vt 0.720266 0.328417
vt 0.720266 0.437500
vt 0.696238 0.437500
vt 0.696238 0.328417
vt 0.198680 0.429872
vt 0.404369 0.429872
vt 0.437771 0.486671
vt 0.165277 0.486671
vt 0.507214 0.254989
vt 0.404369 0.080106
vt 0.437771 0.023307
vt 0.574019 0.254989
vt 0.862254 0.219335
vt 0.862254 0.001169
vt 0.886283 0.001169
vt 0.886283 0.219335
vt 0.198680 0.080106
vt 0.165277 0.023307
vt 0.720266 0.001169
vt 0.720266 0.110252
vt 0.696238 0.110252
vt 0.696238 0.001169
vt 0.095835 0.254989
vt 0.029031 0.254989
vt 0.736892 0.001169
vt 0.762620 0.001169
vt 0.099535 0.753439
vt 0.202380 0.928322
vt 0.168977 0.985121
vt 0.032730 0.753439
vt 0.779246 0.110252
vt 0.779246 0.001169
vt 0.803274 0.001169
vt 0.803274 0.110252
vt 0.510914 0.753439
vt 0.408069 0.578556
vt 0.441471 0.521757
vt 0.577718 0.753439
vt 0.408069 0.928322
vt 0.441471 0.985121
vt 0.202380 0.578556
vt 0.168977 0.521757
vt 0.770508 0.003488
vt 0.770508 0.139768
vt 0.729004 0.139768
vt 0.729004 0.003488
vt 0.853516 0.005806
vt 0.853516 0.278367
vt 0.812012 0.278367
vt 0.812012 0.005806
vt 1.000000 0.425070
vt 1.000000 0.561351
vt 0.958496 0.561351
vt 0.958496 0.425070
vt 1.000000 0.145554
vt 1.000000 0.418115
vt 0.958496 0.418115
vt 0.958496 0.145554
vt 1.000000 0.002319
vt 1.000000 0.138599
vt 0.958496 0.138599
vt 0.958496 0.002319
vt 0.770508 0.146724
vt 0.770508 0.419284
vt 0.729004 0.419284
vt 0.729004 0.146724
vt 0.108876 0.753439
vt 0.207050 0.920380
vt 0.399699 0.421931
vt 0.497873 0.254989
vt 0.207050 0.586497
vt 0.399699 0.088048
vt 0.403399 0.586497
vt 0.203350 0.088048
vt 0.501573 0.753439
vt 0.105176 0.254989
vt 0.403399 0.920380
vt 0.203350 0.421931
vt 0.779246 0.328417
vt 0.803274 0.328417
vn 0.8660 0.0000 -0.5000
vn -0.8660 0.0000 0.5000
vn -0.8660 0.0000 -0.5000
vn -0.0000 0.0000 -1.0000
vn 0.0000 0.0000 1.0000
vn -0.0242 0.9996 0.0140
vn -0.0000 0.9996 -0.0279
vn 0.0242 0.9996 -0.0140
vn 0.8660 0.0000 0.5000
vn 0.0242 0.9996 0.0140
vn 0.0000 0.9996 0.0279
vn -0.0242 -0.9996 -0.0140
vn 0.0242 -0.9996 0.0140
vn 0.0000 -0.9996 0.0279
vn -0.0242 0.9996 -0.0140
vn -0.0242 -0.9996 0.0140
vn -0.0000 -0.9996 -0.0279
vn 0.0242 -0.9996 -0.0140
vn 0.6038 -0.7169 0.3486
vn 0.6038 0.7169 0.3486
vn 0.0000 -0.7169 0.6972
vn 0.0000 0.7169 0.6972
vn -0.6038 -0.7169 0.3486
vn -0.6038 0.7169 0.3486
vn -0.6038 -0.7169 -0.3486
vn -0.6038 0.7169 -0.3486
vn -0.0000 -0.7169 -0.6972
vn -0.0000 0.7169 -0.6972
vn 0.6038 -0.7169 -0.3486
vn 0.6038 0.7169 -0.3486
vn -0.6209 -0.6972 -0.3585
vn -0.6209 0.6972 -0.3585
vn 0.0000 -0.6972 -0.7169
vn 0.0000 0.6972 -0.7169
vn 0.6209 -0.6972 -0.3585
vn 0.6209 0.6972 -0.3585
vn 0.6209 -0.6972 0.3585
vn 0.6209 0.6972 0.3585
vn 0.0000 -0.6972 0.7169
vn 0.0000 0.6972 0.7169
vn -0.6209 -0.6972 0.3585
vn -0.6209 0.6972 0.3585
g Cylinder_Cylinder_ScannerMat
usemtl ScannerMat
s off
f 45/1/1 48/2/1 31/3/1 26/4/1
f 33/5/2 36/6/2 40/7/2 37/8/2
f 37/8/3 40/7/3 44/9/3 41/10/3
f 41/10/4 44/9/4 48/11/4 45/12/4
f 27/13/5 30/14/5 36/15/5 33/16/5
f 22/17/2 1/18/2 4/19/2 23/20/2
f 24/21/6 3/22/6 32/23/6 47/24/6
f 8/25/7 12/26/7 35/27/7 29/28/7
f 10/29/1 14/30/1 15/31/1 11/32/1
f 12/26/8 16/33/8 39/34/8 35/27/8
f 14/35/9 18/36/9 19/37/9 15/38/9
f 16/33/10 20/39/10 43/40/10 39/34/10
f 18/36/5 22/17/5 23/20/5 19/37/5
f 20/39/11 24/21/11 47/24/11 43/40/11
f 26/4/9 31/3/9 30/41/9 27/42/9
f 5/43/12 2/44/12 25/45/12 28/46/12
f 6/47/4 10/48/4 11/49/4 7/50/4
f 17/51/13 13/52/13 38/53/13 42/54/13
f 21/55/14 17/51/14 42/54/14 46/56/14
f 3/22/15 8/25/15 29/28/15 32/23/15
f 2/44/16 21/55/16 46/56/16 25/45/16
f 9/57/17 5/43/17 28/46/17 34/58/17
f 13/52/18 9/57/18 34/58/18 38/53/18
f 26/4/19 27/42/19 28/59/19 25/60/19
f 30/41/20 31/3/20 32/61/20 29/62/20
f 27/13/21 33/16/21 34/63/21 28/64/21
f 36/15/22 30/14/22 29/65/22 35/66/22
f 33/5/23 37/8/23 38/67/23 34/68/23
f 40/7/24 36/6/24 35/69/24 39/70/24
f 37/8/25 41/10/25 42/71/25 38/72/25
f 44/9/26 40/7/26 39/73/26 43/74/26
f 41/10/27 45/12/27 46/75/27 42/76/27
f 48/11/28 44/9/28 43/77/28 47/78/28
f 45/1/29 26/4/29 25/79/29 46/80/29
f 31/3/30 48/2/30 47/81/30 32/82/30
f 2/44/31 5/43/31 6/83/31 1/84/31
f 8/25/32 3/22/32 4/85/32 7/86/32
f 5/43/33 9/57/33 10/87/33 6/83/33
f 12/26/34 8/25/34 7/86/34 11/88/34
f 9/57/35 13/52/35 14/89/35 10/87/35
f 16/33/36 12/26/36 11/88/36 15/90/36
f 13/52/37 17/51/37 18/91/37 14/89/37
f 20/39/38 16/33/38 15/90/38 19/92/38
f 17/51/39 21/55/39 22/93/39 18/91/39
f 24/21/40 20/39/40 19/92/40 23/94/40
f 21/55/41 2/44/41 1/84/41 22/93/41
f 3/22/42 24/21/42 23/94/42 4/85/42
f 1/95/3 6/47/3 7/50/3 4/96/3
o Plane
v -0.388800 0.070000 0.648000
v 0.388800 0.070000 0.648000
v -0.388800 0.070000 -0.648000
v 0.388800 0.070000 -0.648000
v -0.777600 0.070000 0.000000
v 0.777600 0.070000 0.000000
vt 0.500000 1.000000
vt 0.500000 0.000000
vt 1.000000 0.250000
vt 1.000000 0.750000
vt 0.000000 0.750000
vt 0.000000 0.250000
vn 0.0000 1.0000 0.0000
g Plane_Plane_ScannerScreenMat
usemtl ScannerScreenMat
s off
f 53/97/43 54/98/43 52/99/43 51/100/43
f 49/101/43 50/102/43 54/98/43 53/97/43
