# Blender v2.83.5 OBJ File: 'scanner.blend'
# www.blender.org
mtllib item/scanner.mtl
o Cylinder
v 0.000000 0.000000 -1.431212
v 0.000000 0.039715 -1.500000
v 0.000000 0.200000 -1.431212
v 0.000000 0.160285 -1.500000
v 1.299038 0.039715 -0.750000
v 1.239466 0.000000 -0.715606
v 1.239466 0.200000 -0.715606
v 1.299038 0.160285 -0.750000
v 1.239466 0.000000 0.715606
v 1.299038 0.039715 0.750000
v 1.239466 0.200000 0.715606
v 1.299038 0.160285 0.750000
v -0.000000 0.000000 1.431212
v -0.000000 0.039715 1.500000
v 0.011456 0.200000 1.424598
v -0.000000 0.160285 1.500000
v -1.239466 0.000000 0.715606
v -1.299038 0.039715 0.750000
v -1.263295 0.200000 0.688091
v -1.299038 0.160285 0.750000
v -1.299038 0.039715 -0.750000
v -1.239466 0.000000 -0.715606
v -1.262378 0.200000 -0.702377
v -1.299038 0.160285 -0.750000
v 0.000000 0.160285 -1.050000
v -0.000000 0.200000 -1.118788
v 0.000000 0.000000 -1.118788
v 0.000000 0.039715 -1.050000
v -0.909327 0.160285 0.525000
v -0.968899 0.200000 0.559394
v -0.968899 0.000000 0.559394
v -0.909327 0.039715 0.525000
v -0.968899 0.200000 -0.559394
v -0.909327 0.160285 -0.525000
v -0.909327 0.039715 -0.525000
v -0.968899 0.000000 -0.559394
v -0.000000 0.039715 1.050000
v -0.000000 -0.000000 1.118788
v -0.000000 0.200000 1.118788
v -0.000000 0.160285 1.050000
v 0.968899 0.200000 -0.559394
v 0.909327 0.160285 -0.525000
v 0.909327 0.039715 -0.525000
v 0.968899 0.000000 -0.559394
v 0.909327 0.160285 0.525000
v 0.968899 0.200000 0.559394
v 0.968899 0.000000 0.559394
v 0.909327 0.039715 0.525000
v -0.968899 0.200000 0.178182
v -0.909327 0.160285 0.075000
vt 0.694856 0.417194
vt 0.719744 0.140985
vt 0.719744 0.417194
vt 0.206025 0.576182
vt 0.043132 0.754129
vt 0.174544 0.524736
vt 0.967563 0.419354
vt 0.990255 0.152074
vt 0.990255 0.419354
vt 0.967563 0.152074
vt 0.990255 0.018435
vt 0.967563 0.552994
vt 0.990255 0.552994
vt 0.761027 0.389573
vt 0.736140 0.292900
vt 0.761027 0.292900
vt 0.506431 0.251837
vt 0.402458 0.085408
vt 0.570830 0.251068
vt 0.694856 0.140985
vt 0.719744 0.002881
vt 0.777423 0.099554
vt 0.802311 0.002881
vt 0.802311 0.099554
vt 0.736139 0.099554
vt 0.761027 0.002881
vt 0.761027 0.099554
vt 0.818706 0.279090
vt 0.843594 0.002881
vt 0.843594 0.279090
vt 0.195900 0.426440
vt 0.167759 0.486001
vt 0.021004 0.249830
vt 0.884878 0.002881
vt 0.859990 0.196227
vt 0.859990 0.002881
vt 0.777423 0.292900
vt 0.802311 0.292900
vt 0.736139 0.182417
vt 0.727942 0.137819
vt 0.686658 0.006048
vt 0.694856 0.002881
vt 0.851792 0.272757
vt 0.810509 0.009214
vt 0.818706 0.002881
vt 0.997729 0.422418
vt 0.997729 0.549930
vt 0.960089 0.423597
vt 0.997729 0.413226
vt 0.960089 0.414404
vt 0.960089 0.152074
vt 0.997729 0.149010
vt 0.967563 0.018435
vt 0.960089 0.146559
vt 0.960089 0.022677
vt 0.727942 0.147319
vt 0.727942 0.410861
vt 0.686658 0.147319
vt 0.401867 0.427993
vt 0.491553 0.251531
vt 0.769225 0.389573
vt 0.097040 0.251937
vt 0.202651 0.415255
vt 0.769225 0.099554
vt 0.810509 0.099554
vt 0.203644 0.092790
vt 0.198554 0.083861
vt 0.102179 0.754159
vt 0.213710 0.588066
vt 0.115671 0.754686
vt 0.398743 0.092428
vt 0.205216 0.925445
vt 0.408128 0.913453
vt 0.414241 0.926945
vt 0.109987 0.251718
vt 0.277409 0.416624
vt 0.395490 0.416625
vt 0.769225 0.292900
vt 0.727942 0.163417
vt 0.727942 0.099554
vt 0.443263 0.980512
vt 0.575196 0.753662
vt 0.441858 0.524697
vt 0.513420 0.753668
vt 0.414220 0.576124
vt 0.177062 0.979823
vt 0.736139 0.389573
vt 0.440403 0.485974
vt 0.261826 0.427187
vt 0.438336 0.025173
vt 0.777423 0.002881
vt 0.736139 0.002881
vt 0.164739 0.024711
vt 0.884878 0.196227
vt 0.727942 0.006048
vt 0.686658 0.137819
vt 0.851792 0.009214
vt 0.810509 0.272757
vt 0.960089 0.549930
vt 0.997729 0.158203
vt 0.997729 0.021499
vt 0.686658 0.415733
vt 0.769225 0.002881
vt 0.810509 0.002881
vt 0.211415 0.913473
vn -0.5000 0.0000 -0.8660
vn 0.0000 -1.0000 0.0000
vn -0.5000 0.0000 0.8660
vn -1.0000 0.0000 0.0000
vn 0.5000 0.0000 0.8660
vn -0.0000 1.0000 0.0000
vn 0.5000 0.0000 -0.8660
vn 1.0000 0.0000 0.0000
vn 0.2773 -0.8321 -0.4804
vn 0.2774 0.8320 -0.4804
vn 0.5547 -0.8321 0.0000
vn 0.5547 0.8321 0.0000
vn 0.2774 -0.8321 0.4804
vn 0.2773 0.8321 0.4804
vn -0.2774 -0.8321 0.4804
vn -0.2430 0.8742 0.4205
vn -0.5547 -0.8320 0.0000
vn -0.7345 0.6786 -0.0005
vn -0.2774 -0.8321 -0.4804
vn -0.2774 0.8321 -0.4804
vn 0.2774 0.8321 -0.4804
vn 0.2774 -0.8321 -0.4804
vn -0.5547 -0.8321 -0.0000
vn -0.5547 0.8321 0.0000
vn -0.2773 -0.8321 -0.4804
vn -0.2774 0.8321 0.4804
vn -0.2773 0.8321 -0.4804
vn 0.5547 -0.8320 0.0000
vn 0.5547 0.8320 0.0000
vn 0.2774 0.8321 0.4804
vn -0.2440 0.8728 0.4226
vn -0.7433 0.6690 0.0000
vn 0.2773 -0.8321 0.4804
g Cylinder_Cylinder_ScannerMat
usemtl ScannerMat
s off
f 24/1/1 2/2/1 21/3/1
f 38/4/2 9/5/2 13/6/2
f 16/7/3 18/8/3 14/9/3
f 20/10/4 21/11/4 18/8/4
f 12/12/5 14/9/5 10/13/5
f 28/14/5 34/15/5 35/16/5
f 26/17/6 41/18/6 3/19/6
f 4/20/7 5/21/7 2/2/7
f 45/22/4 43/23/4 48/24/4
f 29/25/7 37/26/7 32/27/7
f 8/28/8 10/29/8 5/30/8
f 30/31/6 19/32/6 15/33/6
f 42/34/3 28/35/3 43/36/3
f 40/37/1 48/24/1 37/38/1
f 50/39/8 29/25/8 32/27/8
f 5/21/9 1/40/9 2/2/9
f 4/20/10 7/41/10 8/42/10
f 10/29/11 6/43/11 5/30/11
f 8/28/12 11/44/12 12/45/12
f 10/13/13 13/46/13 9/47/13
f 12/12/14 15/48/14 16/7/14
f 18/8/15 13/49/15 14/9/15
f 20/10/16 15/50/16 19/51/16
f 21/11/17 17/52/17 18/8/17
f 24/53/18 19/54/18 23/55/18
f 21/3/19 1/56/19 22/57/19
f 24/1/20 3/58/20 4/20/20
f 33/59/14 25/60/14 26/17/14
f 35/16/13 27/61/13 28/14/13
f 39/62/21 29/63/21 30/31/21
f 37/26/22 31/64/22 32/27/22
f 43/23/23 47/65/23 48/24/23
f 41/18/24 45/66/24 46/67/24
f 47/68/25 37/69/25 48/70/25
f 26/17/26 42/71/26 41/18/26
f 44/72/15 28/73/15 27/74/15
f 46/67/27 40/75/27 39/62/27
f 33/59/12 50/76/12 34/77/12
f 32/27/11 36/78/11 35/16/11
f 29/25/12 49/79/12 30/80/12
f 1/81/2 27/74/2 22/82/2
f 24/1/1 4/20/1 2/2/1
f 17/83/2 22/82/2 36/84/2
f 17/83/2 36/84/2 31/85/2
f 44/72/2 6/86/2 47/68/2
f 6/86/2 9/5/2 47/68/2
f 13/6/2 17/83/2 31/85/2
f 38/4/2 47/68/2 9/5/2
f 13/6/2 31/85/2 38/4/2
f 16/7/3 20/10/3 18/8/3
f 20/10/4 24/53/4 21/11/4
f 12/12/5 16/7/5 14/9/5
f 28/14/5 25/87/5 34/15/5
f 23/88/6 19/32/6 49/89/6
f 23/88/6 49/89/6 33/59/6
f 41/18/6 7/90/6 3/19/6
f 23/88/6 33/59/6 3/19/6
f 33/59/6 26/17/6 3/19/6
f 4/20/7 8/42/7 5/21/7
f 45/22/4 42/91/4 43/23/4
f 29/25/7 40/92/7 37/26/7
f 8/28/8 12/45/8 10/29/8
f 11/93/6 7/90/6 41/18/6
f 11/93/6 41/18/6 46/67/6
f 30/31/6 49/89/6 19/32/6
f 11/93/6 46/67/6 15/33/6
f 46/67/6 39/62/6 15/33/6
f 39/62/6 30/31/6 15/33/6
f 42/34/3 25/94/3 28/35/3
f 40/37/1 45/22/1 48/24/1
f 32/27/8 35/16/8 50/39/8
f 35/16/8 34/15/8 50/39/8
f 5/21/22 6/95/22 1/40/22
f 4/20/21 3/96/21 7/41/21
f 10/29/28 9/97/28 6/43/28
f 8/28/29 7/98/29 11/44/29
f 10/13/13 14/9/13 13/46/13
f 12/12/30 11/99/30 15/48/30
f 18/8/15 17/100/15 13/49/15
f 20/10/31 16/7/31 15/50/31
f 21/11/17 22/101/17 17/52/17
f 24/53/32 20/10/32 19/54/32
f 21/3/25 2/2/25 1/56/25
f 24/1/27 23/102/27 3/58/27
f 33/59/14 34/77/14 25/60/14
f 35/16/33 36/78/33 27/61/33
f 39/62/21 40/75/21 29/63/21
f 37/26/22 38/103/22 31/64/22
f 43/23/23 44/104/23 47/65/23
f 41/18/24 42/71/24 45/66/24
f 47/68/19 38/4/19 37/69/19
f 26/17/26 25/60/26 42/71/26
f 44/72/15 43/105/15 28/73/15
f 46/67/20 45/66/20 40/75/20
f 33/59/29 49/89/29 50/76/29
f 32/27/11 31/64/11 36/78/11
f 29/25/12 50/39/12 49/79/12
f 1/81/2 6/86/2 44/72/2
f 27/74/2 36/84/2 22/82/2
f 1/81/2 44/72/2 27/74/2
o Cylinder.001_Cylinder.002
v 0.000000 0.100000 -1.100000
v 0.000000 0.100220 -1.100000
v 0.952628 0.100000 -0.550000
v 0.952628 0.100220 -0.550000
v 0.952628 0.100000 0.550000
v 0.952628 0.100220 0.550000
v -0.000000 0.100000 1.100000
v -0.000000 0.100220 1.100000
v -0.952628 0.100000 0.550000
v -0.952628 0.100220 0.550000
v -0.952628 0.100000 -0.550000
v -0.952628 0.100220 -0.550000
vt 0.493874 1.001817
vt 0.493874 1.001817
vt 0.999695 0.750697
vt 0.999695 0.750697
vt 0.999752 0.248830
vt 0.999752 0.248830
vt 0.495197 0.001130
vt 0.495197 0.001130
vt 0.000305 0.267470
vt 0.000305 0.267470
vt 0.000816 0.747922
vt 0.000816 0.747922
vn 0.5000 0.0000 -0.8660
vn 1.0000 0.0000 0.0000
vn 0.5000 0.0000 0.8660
vn -0.5000 0.0000 0.8660
vn 0.0000 1.0000 -0.0000
vn -1.0000 0.0000 0.0000
vn -0.5000 0.0000 -0.8660
vn 0.0000 -1.0000 -0.0000
g Cylinder.001_Cylinder.002_ScreenMat
usemtl ScreenMat
s off
f 51/106/34 52/107/34 54/108/34 53/109/34
f 53/109/35 54/108/35 56/110/35 55/111/35
f 55/111/36 56/110/36 58/112/36 57/113/36
f 57/113/37 58/112/37 60/114/37 59/115/37
f 54/108/38 52/107/38 62/116/38 60/114/38 58/112/38 56/110/38
f 59/115/39 60/114/39 62/116/39 61/117/39
f 61/117/40 62/116/40 52/107/40 51/106/40
f 51/106/41 53/109/41 55/111/41 57/113/41 59/115/41 61/117/41
